<svg preserveAspectRatio="none" width="100%" height="100%" overflow="visible" style="display: block;" viewBox="0 0 35 35" fill="none" xmlns="http://www.w3.org/2000/svg">
<g id="alarm-line">
<path id="Vector" d="M17.5001 32.0835C10.2514 32.0835 4.37517 26.2073 4.37517 18.9585C4.37517 11.7098 10.2514 5.83351 17.5001 5.83351C24.7489 5.83351 30.6251 11.7098 30.6251 18.9585C30.6251 26.2073 24.7489 32.0835 17.5001 32.0835ZM17.5001 29.1668C23.1381 29.1668 27.7085 24.5964 27.7085 18.9585C27.7085 13.3206 23.1381 8.75018 17.5001 8.75018C11.8623 8.75018 7.29184 13.3206 7.29184 18.9585C7.29184 24.5964 11.8623 29.1668 17.5001 29.1668ZM18.9585 18.9585H23.3335V21.8751H16.0418V11.6668H18.9585V18.9585ZM2.54781 9.16213L7.70379 4.00614L9.7662 6.06853L4.6102 11.2245L2.54781 9.16213ZM27.2965 4.00614L32.4526 9.16213L30.3902 11.2245L25.2341 6.06853L27.2965 4.00614Z" fill="var(--fill-0, black)"/>
</g>
</svg>
