<svg preserveAspectRatio="none" width="100%" height="100%" overflow="visible" style="display: block;" viewBox="0 0 35 35" fill="none" xmlns="http://www.w3.org/2000/svg">
<g id="sparkling-line">
<path id="Vector" d="M20.4167 6.47135C22.3799 6.47135 23.9714 4.87986 23.9714 2.91667H25.612C25.612 4.87986 27.2035 6.47135 29.1667 6.47135V8.11198C27.2035 8.11198 25.612 9.70347 25.612 11.6667H23.9714C23.9714 9.70347 22.3799 8.11198 20.4167 8.11198V6.47135ZM1.45833 16.0417C6.29083 16.0417 10.2083 12.1242 10.2083 7.29167H13.125C13.125 12.1242 17.0425 16.0417 21.875 16.0417V18.9583C17.0425 18.9583 13.125 22.8759 13.125 27.7083H10.2083C10.2083 22.8759 6.29083 18.9583 1.45833 18.9583V16.0417ZM7.11085 17.5C9.02296 18.5611 10.6056 20.1437 11.6667 22.0558C12.7277 20.1437 14.3104 18.5611 16.2225 17.5C14.3104 16.4389 12.7277 14.8563 11.6667 12.9442C10.6056 14.8563 9.02296 16.4389 7.11085 17.5ZM25.1563 20.4167C25.1563 23.0342 23.0342 25.1562 20.4167 25.1562V27.3437C23.0342 27.3437 25.1563 29.4658 25.1563 32.0833H27.3438C27.3438 29.4658 29.4658 27.3437 32.0833 27.3437V25.1562C29.4658 25.1562 27.3438 23.0342 27.3438 20.4167H25.1563Z" fill="var(--fill-0, black)"/>
</g>
</svg>
