<svg preserveAspectRatio="none" width="100%" height="100%" overflow="visible" style="display: block;" viewBox="0 0 34 35" fill="none" xmlns="http://www.w3.org/2000/svg">
<g id="settings-2-line">
<path id="Vector" d="M12.3057 5.83345L15.9984 2.03216C16.5516 1.46264 17.4487 1.46264 18.0019 2.03216L21.6945 5.83345H26.9168C27.6992 5.83345 28.3335 6.48638 28.3335 7.29178V12.6676L32.0262 16.469C32.5794 17.0384 32.5794 17.9619 32.0262 18.5313L28.3335 22.3326V27.7085C28.3335 28.5139 27.6992 29.1668 26.9168 29.1668H21.6945L18.0019 32.9681C17.4487 33.5376 16.5516 33.5376 15.9984 32.9681L12.3057 29.1668H7.08345C6.30105 29.1668 5.66678 28.5139 5.66678 27.7085V22.3326L1.9741 18.5313C1.42085 17.9619 1.42085 17.0384 1.9741 16.469L5.66678 12.6676V7.29178C5.66678 6.48638 6.30105 5.83345 7.08345 5.83345H12.3057ZM8.50011 8.75012V13.8758L4.9793 17.5001L8.50011 21.1245V26.2501H13.4793L17.0001 29.8745L20.521 26.2501H25.5001V21.1245L29.021 17.5001L25.5001 13.8758V8.75012H20.521L17.0001 5.12575L13.4793 8.75012H8.50011ZM17.0001 23.3335C13.8705 23.3335 11.3334 20.7218 11.3334 17.5001C11.3334 14.2785 13.8705 11.6668 17.0001 11.6668C20.1297 11.6668 22.6668 14.2785 22.6668 17.5001C22.6668 20.7218 20.1297 23.3335 17.0001 23.3335ZM17.0001 20.4168C18.565 20.4168 19.8335 19.111 19.8335 17.5001C19.8335 15.8893 18.565 14.5835 17.0001 14.5835C15.4353 14.5835 14.1668 15.8893 14.1668 17.5001C14.1668 19.111 15.4353 20.4168 17.0001 20.4168Z" fill="var(--fill-0, black)"/>
</g>
</svg>
